<svg width="128" height="128" viewBox="0 0 128 128" fill="none" xmlns="http://www.w3.org/2000/svg">
<path fill-rule="evenodd" clip-rule="evenodd" d="M9.23444 67.8236L9.23498 67.8222C9.24957 67.7838 9.26382 67.7462 9.27773 67.7096C9.26367 67.7466 9.24919 67.7848 9.23444 67.8236Z" fill="#D9D9D9"/>
<path d="M7.79028 89.5845C10.4631 102.147 23.6488 110.61 31.3108 113.105C33.5998 113.85 39.7293 114.492 47.3476 114.981C51.8022 115.068 63.8119 114.441 76.2137 111.234C91.7159 107.225 97.3287 99.2065 102.407 87.9808C106.47 79.0003 101.071 63.0348 97.8633 56.1746C95.1014 50.4727 91.2135 42.1895 87.7067 32.9214C83.9648 23.032 78.4677 17.1838 68.8288 12.8374C67.5518 12.5655 66.8231 12.456 65.5225 12.3409C60.2387 11.8731 58.878 12.4901 52.1154 14.5189L52.0648 14.5341C47.2538 15.9774 42.1147 19.1898 37.3644 24.9579C33.8061 29.2788 31.8038 33.0796 29.8088 36.8664C27.608 41.044 25.4162 45.2045 21.1542 50.0272C13.0289 59.2216 9.92851 65.4403 9.39395 67.4004C9.35879 67.4953 9.31988 67.5984 9.27773 67.7096L9.23498 67.8222L9.23444 67.8236C8.17217 70.622 5.34198 78.0775 7.79028 89.5845Z" fill="#A7CADE"/>
<path d="M111.762 55.6401C102.407 43.078 102.674 41.4743 97.3287 32.9214C92.3839 25.0096 85.4001 15.2429 68.8288 12.8374C78.4677 17.1838 83.9648 23.032 87.7067 32.9214C91.2135 42.1895 95.1014 50.4727 97.8633 56.1746C101.071 63.0348 106.47 79.0003 102.407 87.9808C97.3287 99.2065 91.7159 107.225 76.2137 111.234C63.8119 114.441 51.8022 115.068 47.3476 114.981C65.2304 116.128 91.1264 115.687 95 114.5C100.524 112.807 112.207 107.299 117.375 98.1374C123.255 87.7136 123.255 67.6676 111.762 55.6401Z" fill="#86ACC1"/>
<circle cx="71.5015" cy="58.8094" r="5.88014" fill="black"/>
<circle cx="38.8935" cy="58.8094" r="5.88014" fill="black"/>
<path d="M48.7828 67.6296C48.7828 67.6296 49.5847 72.4406 55.1975 72.4406C60.8104 72.4406 61.8795 67.8969 61.8795 67.8969" stroke="black" stroke-width="6" stroke-linecap="round"/>
<circle cx="41.8336" cy="35.5561" r="1.33639" fill="#D0E8F4"/>
<ellipse cx="51.1884" cy="28.0723" rx="6.91342" ry="3.62509" transform="rotate(-24.2824 51.1884 28.0723)" fill="#D0E8F4"/>
</svg>
